<?xml version="1.0" encoding="utf-8"?>
<!-- Generator: Adobe Illustrator 19.0.0, SVG Export Plug-In . SVG Version: 6.00 Build 0)  -->
<svg version="1.1" id="Layer_1" xmlns="http://www.w3.org/2000/svg" xmlns:xlink="http://www.w3.org/1999/xlink" x="0px" y="0px"
	 viewBox="0 0 500 336.9" style="enable-background:new 0 0 500 336.9;" xml:space="preserve">
<style type="text/css">
	.st0{fill:#011C66;}
</style>
<g>
	<path class="st0" d="M232.7,127.2c6.6-12.4,13.9-23.6,24.9-32c5-3.9,10.1-7.6,15.9-10.2c3.1-1.4,7.5-3.1,9.4-0.7
		c6,7.2,9.3,1.9,13.7-1.5c4.8-3.8,10.4-4.6,16.1-1.7c6,3.1,6,9,5.1,14.2c-2.3,13.6-9.6,25.2-16.2,36.9c-2.8,5-6,9.7-9.1,14.5
		c8.9,2.7,22.8-3.9,25.2-12.5c3.2-11.3,9.4-20.8,16.3-29.9c3.3-4.3,7.5-8.2,12.9-5.1c6,3.4,3.1,9.2,1,13.7
		c-4.2,9.1-9.7,17.3-17.2,24.2c-3.4,3.1-7.1,6-3.8,11.4c3.1,5.1,8,7.1,13.2,5.4c14.6-4.9,25.8-14,31.2-28.9
		c3.4-9.3,8.8-17.1,16-23.6c2.1-1.9,4.5-3.7,7.2-1.5c2.5,2,2.2,5,0.7,7.4c-3.6,5.9-7.5,11.6-11.5,17.3c-2.4,3.5-5,6.7-6.5,10.8
		c-1.7,4.6-0.6,8.3,3.3,11.1c3.7,2.7,6.8,0.7,9.7-1.7c5.5-4.6,10.6-9.9,16.7-13.6c9.1-5.6,19.6-7.5,30.2-7.7
		c13.6-0.3,27-1.3,40.4-3.7c2.8-0.5,6.7-1.8,7.5,2.4c0.9,4.6-3.2,5.4-6.4,5.7c-12.3,1.3-24.5,2.8-36.8,3.1
		c-14.9,0.5-28.8,2.2-39.1,14.7c-2.4,2.9-6.1,4.8-9.4,7c-8.5,5.8-15.8,4.9-21.7-3.8c-3.2-4.8-5.4-4.5-8.9-1c-4,4.1-8.1,8-13.3,10.7
		c-11.6,6.1-21.5,4.5-29.3-6.1c-2.5-3.4-4.6-4.3-8.1-2.4c-8.1,4.4-16.5,7.1-25.9,6.4c-5.3-0.4-8.5,4.1-12.6,6.5
		c-12.5,7.4-27.5,5.8-37.5-3.8c-6.1-5.8-5.6-13.5-6.9-22.5c-5.4,7.5-6.4,14.9-8.5,21.7c-14.6,48.7-23.7,98.9-37.2,147.9
		c-1.2,4.2-1.1,12-6.8,10.8c-6.8-1.5-3.4-8.4-2-13.1c11.5-40.6,19.2-82.1,30-122.8c3.3-12.2,7.1-24.3,10.8-36.3
		c1.5-4.7,1-7.1-4.7-5.9c-2.6,0.5-5.4,0.7-8.1,0.8c-26.2,1.3-20.5-0.4-27.3,23c-1.4,4.9-1.6,10.1-2.8,15.1c-0.8,3.4-1.5,7.9-6.7,6.4
		c-4-1.2-4-4.5-3-8.2c2.1-8.2,3.3-16.6,5.9-24.6c2.1-6.6-0.1-8.3-6.1-8c-17.7,0.9-35.5,1.3-53.2,2.6c-20.8,1.5-41.5,0-62.2-0.4
		c-9.9-0.2-19.9-1.3-29.5,2.2c-2.8,1-5.6,1.3-6.8-2c-1.3-3.6,1.9-4.9,4.4-5.6c6.1-1.7,12.3-3,18.6-2.9c42.2,0.8,84.3,0.1,126.5-1.7
		c9.3-0.4,14.6-2.8,16.4-12.5c1.4-8,4.3-15.7,6.6-23.4c0.5-1.7,1.2-3.5,2.3-4.9c1.9-2.2,3.9-5.8,7.1-4.1c3.1,1.5,0.8,4.9,0.2,7.4
		c-2.4,9.9-4.9,19.9-7.6,29.7c-1.1,3.9,0.1,4.9,3.8,4.6c5.4-0.5,10.8-0.7,16.2-0.9c9.9-0.4,16.2-3.6,18.7-14.8
		c6.4-28.4,19.2-55.1,22.2-84.5c0.3-3.3,0.5-8.4,5.5-7.7c5.2,0.8,4.4,5.4,3.7,9.5c-5,28.5-14.6,55.8-22.5,83.6
		C232.6,120.7,230.3,123.3,232.7,127.2z M242.2,126.5c3.7-0.5,5.4-1.1,7.1-1c4.4,0.4,11.9-2.5,12.4,3.2c0.7,7.4-7.1,3.9-11.2,4.4
		c-10.3,1.3-13.4,4.1-11.9,12.5c1.4,8,6.6,12.6,14.1,14.6c8,2.1,14.8-0.8,20.9-5.7c2.4-1.9,1.6-4.1-0.1-6.3
		c-9.4-12.2-6.9-24.8-0.7-37.2c2.7-5.3,6.8-9.9,10.1-14.8c1.2-1.8,2.1-3.8,0.7-5.8c-1.5-2.2-3.7-1.8-5.6-0.8
		C262.3,97.4,249.7,108.2,242.2,126.5z M311.6,94.4c-0.3-6.5-2.5-9.2-8.6-6.4c-15.1,7.1-23,19.5-26.6,35.2
		c-1.3,5.7-1.2,11.4,1.3,16.7c3.1,6.6,5.9,7,10,0.9c8.1-12.3,16.2-24.6,21.4-38.5C310.1,99.6,310.9,96.7,311.6,94.4z"/>
</g>
</svg>
